<mxfile host="app.diagrams.net" modified="2023-11-06T10:56:00.700Z" agent="Mozilla/5.0 (Windows NT 10.0; Win64; x64; rv:109.0) Gecko/20100101 Firefox/115.0" etag="bZ3LTLKd1CK4oWObHpGR" version="22.0.8" type="device">
  <diagram name="Page-1" id="3bEpuJEF_ZC8ddxp_8fP">
    <mxGraphModel dx="3436" dy="1469" grid="1" gridSize="10" guides="1" tooltips="1" connect="1" arrows="1" fold="1" page="1" pageScale="1" pageWidth="850" pageHeight="1100" math="0" shadow="0">
      <root>
        <mxCell id="0" />
        <mxCell id="1" parent="0" />
        <mxCell id="pcvKVlhGf1Fei4YQ7C88-1" value="Cam2" style="rounded=1;whiteSpace=wrap;html=1;rotation=-20;" parent="1" vertex="1">
          <mxGeometry x="406" y="60" width="120" height="60" as="geometry" />
        </mxCell>
        <mxCell id="pcvKVlhGf1Fei4YQ7C88-4" value="Cam1" style="rounded=1;whiteSpace=wrap;html=1;rotation=-20;" parent="1" vertex="1">
          <mxGeometry x="150" y="60" width="120" height="60" as="geometry" />
        </mxCell>
        <mxCell id="pcvKVlhGf1Fei4YQ7C88-5" value="" style="triangle;whiteSpace=wrap;html=1;rotation=-30;" parent="1" vertex="1">
          <mxGeometry x="100" y="90" width="60" height="80" as="geometry" />
        </mxCell>
        <mxCell id="pcvKVlhGf1Fei4YQ7C88-6" value="" style="triangle;whiteSpace=wrap;html=1;rotation=-30;" parent="1" vertex="1">
          <mxGeometry x="356" y="90" width="60" height="80" as="geometry" />
        </mxCell>
        <mxCell id="pcvKVlhGf1Fei4YQ7C88-8" value="" style="endArrow=none;html=1;rounded=0;" parent="1" edge="1">
          <mxGeometry width="50" height="50" relative="1" as="geometry">
            <mxPoint x="130" y="180" as="sourcePoint" />
            <mxPoint x="380" y="180" as="targetPoint" />
          </mxGeometry>
        </mxCell>
        <mxCell id="pcvKVlhGf1Fei4YQ7C88-9" value="L" style="text;html=1;strokeColor=none;fillColor=none;align=center;verticalAlign=middle;whiteSpace=wrap;rounded=0;" parent="1" vertex="1">
          <mxGeometry x="230" y="180" width="60" height="30" as="geometry" />
        </mxCell>
        <mxCell id="pcvKVlhGf1Fei4YQ7C88-12" value="" style="endArrow=none;html=1;rounded=0;" parent="1" edge="1">
          <mxGeometry width="50" height="50" relative="1" as="geometry">
            <mxPoint x="-130" y="409" as="sourcePoint" />
            <mxPoint x="117" y="409" as="targetPoint" />
            <Array as="points">
              <mxPoint x="-133" y="409" />
            </Array>
          </mxGeometry>
        </mxCell>
        <mxCell id="pcvKVlhGf1Fei4YQ7C88-14" value="1L" style="text;html=1;strokeColor=none;fillColor=none;align=center;verticalAlign=middle;whiteSpace=wrap;rounded=0;" parent="1" vertex="1">
          <mxGeometry x="-30" y="420" width="60" height="30" as="geometry" />
        </mxCell>
        <mxCell id="pcvKVlhGf1Fei4YQ7C88-16" value="2L" style="text;html=1;strokeColor=none;fillColor=none;align=center;verticalAlign=middle;whiteSpace=wrap;rounded=0;" parent="1" vertex="1">
          <mxGeometry x="-310" y="409" width="60" height="30" as="geometry" />
        </mxCell>
        <mxCell id="pcvKVlhGf1Fei4YQ7C88-18" value="Obj1" style="shape=umlActor;verticalLabelPosition=bottom;verticalAlign=top;html=1;outlineConnect=0;" parent="1" vertex="1">
          <mxGeometry x="-367" y="216" width="90" height="170" as="geometry" />
        </mxCell>
        <mxCell id="pcvKVlhGf1Fei4YQ7C88-19" value="Obj2" style="rounded=1;whiteSpace=wrap;html=1;rotation=0;" parent="1" vertex="1">
          <mxGeometry x="-220" y="270" width="100" height="130" as="geometry" />
        </mxCell>
        <mxCell id="pcvKVlhGf1Fei4YQ7C88-23" value="" style="endArrow=none;html=1;rounded=0;" parent="1" edge="1">
          <mxGeometry width="50" height="50" relative="1" as="geometry">
            <mxPoint x="-387" y="409" as="sourcePoint" />
            <mxPoint x="-140" y="409" as="targetPoint" />
            <Array as="points">
              <mxPoint x="-390" y="409" />
            </Array>
          </mxGeometry>
        </mxCell>
        <mxCell id="pcvKVlhGf1Fei4YQ7C88-24" value="" style="endArrow=none;html=1;rounded=0;entryX=0;entryY=0.5;entryDx=0;entryDy=0;exitX=1;exitY=0.5;exitDx=0;exitDy=0;strokeColor=#00CC00;" parent="1" source="pcvKVlhGf1Fei4YQ7C88-19" target="pcvKVlhGf1Fei4YQ7C88-6" edge="1">
          <mxGeometry width="50" height="50" relative="1" as="geometry">
            <mxPoint x="180" y="440" as="sourcePoint" />
            <mxPoint x="230" y="390" as="targetPoint" />
          </mxGeometry>
        </mxCell>
        <mxCell id="pcvKVlhGf1Fei4YQ7C88-25" value="" style="endArrow=none;html=1;rounded=0;entryX=0;entryY=0.5;entryDx=0;entryDy=0;strokeColor=#00CC00;" parent="1" target="pcvKVlhGf1Fei4YQ7C88-5" edge="1">
          <mxGeometry width="50" height="50" relative="1" as="geometry">
            <mxPoint x="-120" y="330" as="sourcePoint" />
            <mxPoint x="370" y="155" as="targetPoint" />
          </mxGeometry>
        </mxCell>
        <mxCell id="jc8xNccpNXLpQCjGEbvg-1" value="A Layout of Falkor" style="text;html=1;strokeColor=none;fillColor=none;align=center;verticalAlign=middle;whiteSpace=wrap;rounded=0;fontStyle=1" vertex="1" parent="1">
          <mxGeometry x="-382" y="59" width="120" height="30" as="geometry" />
        </mxCell>
      </root>
    </mxGraphModel>
  </diagram>
</mxfile>
